<svg width="1600" height="900" viewBox="0 0 1600 900" fill="none" xmlns="http://www.w3.org/2000/svg" role="img" aria-labelledby="laTitle laDesc">
  <title id="laTitle">Los Angeles skyline at dusk</title>
  <desc id="laDesc">Stylized Los Angeles skyline illustration used as Group B host city artwork.</desc>
  <rect width="1600" height="900" fill="#090A0D" />
  <rect width="1600" height="900" fill="url(#sky)" />
  <circle cx="1230" cy="210" r="96" fill="#FFE1A1" fill-opacity="0.7" />
  <path d="M0 636C173 589 305 555 489 555C737 555 945 645 1162 645C1305 645 1462 607 1600 570V900H0V636Z" fill="url(#haze)" />
  <g opacity="0.92">
    <rect x="130" y="412" width="104" height="288" rx="2" fill="#161B24" />
    <rect x="250" y="462" width="88" height="238" rx="2" fill="#1A202B" />
    <rect x="357" y="346" width="138" height="354" rx="2" fill="#131A24" />
    <rect x="518" y="430" width="102" height="270" rx="2" fill="#171F2A" />
    <rect x="641" y="306" width="164" height="394" rx="2" fill="#101722" />
    <rect x="829" y="386" width="124" height="314" rx="2" fill="#17202B" />
    <rect x="977" y="286" width="152" height="414" rx="2" fill="#0F1620" />
    <rect x="1147" y="446" width="110" height="254" rx="2" fill="#1B2531" />
    <rect x="1280" y="366" width="139" height="334" rx="2" fill="#121A24" />
  </g>
  <g opacity="0.55" fill="#7CC2FF">
    <rect x="153" y="447" width="6" height="8" />
    <rect x="173" y="479" width="6" height="8" />
    <rect x="193" y="513" width="6" height="8" />
    <rect x="276" y="504" width="6" height="8" />
    <rect x="297" y="542" width="6" height="8" />
    <rect x="389" y="398" width="7" height="9" />
    <rect x="416" y="434" width="7" height="9" />
    <rect x="443" y="470" width="7" height="9" />
    <rect x="470" y="506" width="7" height="9" />
    <rect x="548" y="474" width="6" height="8" />
    <rect x="569" y="510" width="6" height="8" />
    <rect x="694" y="361" width="8" height="10" />
    <rect x="724" y="401" width="8" height="10" />
    <rect x="754" y="441" width="8" height="10" />
    <rect x="859" y="430" width="7" height="9" />
    <rect x="885" y="466" width="7" height="9" />
    <rect x="1032" y="340" width="8" height="10" />
    <rect x="1062" y="378" width="8" height="10" />
    <rect x="1092" y="416" width="8" height="10" />
    <rect x="1320" y="412" width="7" height="9" />
    <rect x="1346" y="447" width="7" height="9" />
    <rect x="1372" y="482" width="7" height="9" />
  </g>
  <rect y="700" width="1600" height="200" fill="url(#ground)" />
  <path d="M0 760H1600" stroke="#D0A86A" stroke-opacity="0.35" stroke-width="2" />
  <defs>
    <linearGradient id="sky" x1="800" y1="0" x2="800" y2="900" gradientUnits="userSpaceOnUse">
      <stop stop-color="#271A33" />
      <stop offset="0.45" stop-color="#1A2942" />
      <stop offset="1" stop-color="#0A0E16" />
    </linearGradient>
    <linearGradient id="haze" x1="800" y1="555" x2="800" y2="900" gradientUnits="userSpaceOnUse">
      <stop stop-color="#D36A50" stop-opacity="0.35" />
      <stop offset="1" stop-color="#D36A50" stop-opacity="0" />
    </linearGradient>
    <linearGradient id="ground" x1="800" y1="700" x2="800" y2="900" gradientUnits="userSpaceOnUse">
      <stop stop-color="#0B111A" stop-opacity="0.2" />
      <stop offset="1" stop-color="#05070A" />
    </linearGradient>
  </defs>
</svg>
